<?xml version="1.0" encoding="UTF-8"?><svg id="a" xmlns="http://www.w3.org/2000/svg" width="40" height="32" viewBox="0 0 40 32"><path d="M20,7c-6.76,0-12.68,3.6-16,9,3.32,5.4,9.24,9,16,9s12.68-3.6,16-9c-3.32-5.4-9.24-9-16-9ZM20,24c-5.99,0-11.48-2.98-14.81-8,3.33-5.02,8.82-8,14.81-8s11.48,2.98,14.81,8c-3.33,5.02-8.82,8-14.81,8Z" fill="#fefefe" opacity=".65"/><path d="M23.33,16c0,1.84-1.49,3.33-3.33,3.33s-3.33-1.49-3.33-3.33,1.49-3.33,3.33-3.33,3.33,1.49,3.33,3.33ZM20,13.67c-1.29,0-2.33,1.04-2.33,2.33s1.04,2.33,2.33,2.33,2.33-1.04,2.33-2.33-1.04-2.33-2.33-2.33Z" fill="#fefefe"/><path d="M20,10.33c-3.13,0-5.67,2.54-5.67,5.67s2.54,5.67,5.67,5.67,5.67-2.54,5.67-5.67-2.54-5.67-5.67-5.67ZM20,20.67c-2.58,0-4.67-2.09-4.67-4.67s2.09-4.67,4.67-4.67,4.67,2.09,4.67,4.67-2.09,4.67-4.67,4.67Z" fill="#fefefe"/><path d="M20,13.67c-1.29,0-2.33,1.04-2.33,2.33s1.04,2.33,2.33,2.33,2.33-1.04,2.33-2.33-1.04-2.33-2.33-2.33ZM20,17c-.55,0-1-.45-1-1s.45-1,1-1,1,.45,1,1-.45,1-1,1Z" fill="#010101" opacity=".3"/><path d="M20,11.33c-2.58,0-4.67,2.09-4.67,4.67s2.09,4.67,4.67,4.67,4.67-2.09,4.67-4.67-2.09-4.67-4.67-4.67ZM20,19.33c-1.84,0-3.33-1.49-3.33-3.33s1.49-3.33,3.33-3.33,3.33,1.49,3.33,3.33-1.49,3.33-3.33,3.33Z" fill="#010101" opacity=".3"/><path d="M20,8c-5.99,0-11.48,2.98-14.81,8,3.33,5.02,8.82,8,14.81,8s11.48-2.98,14.81-8c-3.33-5.02-8.82-8-14.81-8ZM20,21.67c-3.13,0-5.67-2.54-5.67-5.67s2.54-5.67,5.67-5.67,5.67,2.54,5.67,5.67-2.54,5.67-5.67,5.67Z" fill="#010101" opacity=".3"/><circle cx="20" cy="16" r="1" fill="#fefefe"/></svg>