<?xml version="1.0" encoding="UTF-8"?><svg id="a" xmlns="http://www.w3.org/2000/svg" width="40" height="32" viewBox="0 0 40 32"><path d="M20,7c-6.76,0-12.68,3.6-16,9,3.32,5.4,9.24,9,16,9s12.68-3.6,16-9c-3.32-5.4-9.24-9-16-9ZM20,24c-5.99,0-11.48-2.98-14.81-8,3.33-5.02,8.82-8,14.81-8s11.48,2.98,14.81,8c-3.33,5.02-8.82,8-14.81,8Z" fill="#fefefe" opacity=".65"/><path d="M17.23,18.06c-.39,0-.71.32-.71.71s.32.71.71.71.71-.32.71-.71-.32-.71-.71-.71Z" fill="#010101" opacity=".3"/><path d="M20,8c-5.99,0-11.48,2.98-14.81,8,3.33,5.02,8.82,8,14.81,8s11.48-2.98,14.81-8c-3.33-5.02-8.82-8-14.81-8ZM25.71,15.27l-4.69,4.69c-.19.19-.46.36-.79.5-.33.14-.64.21-.91.21h-2.99c-.28,0-.51-.1-.71-.29-.19-.19-.29-.43-.29-.71v-2.99c0-.28.07-.58.21-.91.14-.33.3-.6.5-.79l4.69-4.69c.19-.19.43-.29.69-.29s.51.1.72.29l3.57,3.57c.19.21.29.45.29.72s-.1.5-.29.69Z" fill="#010101" opacity=".3"/><path d="M15.62,20.38c-.19-.19-.29-.43-.29-.71v-2.99c0-.28.07-.58.21-.91.14-.33.3-.6.5-.79l4.69-4.69c.19-.19.43-.29.69-.29s.51.1.72.29l3.57,3.57c.19.21.29.45.29.72s-.1.5-.29.69l-4.69,4.69c-.19.19-.46.36-.79.5-.33.14-.64.21-.91.21h-2.99c-.28,0-.51-.1-.71-.29ZM17.94,18.77c0-.39-.32-.71-.71-.71s-.71.32-.71.71.32.71.71.71.71-.32.71-.71Z" fill="#fefefe"/></svg>