<?xml version="1.0" encoding="UTF-8"?><svg id="a" xmlns="http://www.w3.org/2000/svg" width="40" height="32" viewBox="0 0 40 32"><path d="M20,7c-6.76,0-12.68,3.6-16,9,3.32,5.4,9.24,9,16,9s12.68-3.6,16-9c-3.32-5.4-9.24-9-16-9ZM20,24c-5.99,0-11.48-2.98-14.81-8,3.33-5.02,8.82-8,14.81-8s11.48,2.98,14.81,8c-3.33,5.02-8.82,8-14.81,8Z" fill="#fefefe" opacity=".65"/><path d="M20,8c-5.99,0-11.48,2.98-14.81,8,3.33,5.02,8.82,8,14.81,8s11.48-2.98,14.81-8c-3.33-5.02-8.82-8-14.81-8ZM23.37,17.13c-.71,1.11-3.37,4.31-3.37,4.31,0,0-2.66-3.2-3.37-4.31-.4-.62-.63-1.36-.63-2.15,0-2.21,1.79-4,4-4s4,1.79,4,4c0,.79-.23,1.53-.63,2.15ZM21.33,14.97c0,.74-.6,1.33-1.33,1.33s-1.33-.6-1.33-1.33.6-1.33,1.33-1.33,1.33.6,1.33,1.33Z" fill="#010101" opacity=".3"/><path d="M20,10.97c-2.21,0-4,1.79-4,4,0,.79.23,1.53.63,2.15.71,1.11,3.37,4.31,3.37,4.31,0,0,2.66-3.2,3.37-4.31.4-.62.63-1.36.63-2.15,0-2.21-1.79-4-4-4ZM20,16.31c-.74,0-1.33-.6-1.33-1.33s.6-1.33,1.33-1.33,1.33.6,1.33,1.33-.6,1.33-1.33,1.33Z" fill="#fefefe"/></svg>