<?xml version="1.0" encoding="UTF-8"?><svg id="a" xmlns="http://www.w3.org/2000/svg" width="40" height="32" viewBox="0 0 40 32"><path d="M20,7c-6.76,0-12.68,3.6-16,9,3.32,5.4,9.24,9,16,9s12.68-3.6,16-9c-3.32-5.4-9.24-9-16-9ZM20,24c-5.99,0-11.48-2.98-14.81-8,3.33-5.02,8.82-8,14.81-8s11.48,2.98,14.81,8c-3.33,5.02-8.82,8-14.81,8Z" fill="#fefefe" opacity=".65"/><path d="M20,8c-5.99,0-11.48,2.98-14.81,8,3.33,5.02,8.82,8,14.81,8s11.48-2.98,14.81-8c-3.33-5.02-8.82-8-14.81-8ZM20,22c-3.31,0-6-2.69-6-6s2.69-6,6-6,6,2.69,6,6-2.69,6-6,6Z" fill="#010101" opacity=".3"/><path d="M17.47,17.93l-.12-.58h-.92l-.13.58h-1.03l.99-3.85h1.28l.99,3.85h-1.06ZM16.58,16.61h.6l-.29-1.39-.31,1.39ZM18.91,14.07h1.76c.59,0,.88.25.88.74v.49c0,.35-.1.57-.29.68.11.05.19.12.23.22s.06.23.06.4v.58c0,.5-.29.74-.88.74h-1.76v-3.85ZM20.52,15.52v-.62c0-.09-.05-.13-.15-.13h-.43v.89h.43c.1,0,.15-.04.15-.13ZM20.52,17.1v-.63c0-.09-.05-.13-.15-.13h-.43v.89h.43c.1,0,.15-.04.15-.13ZM24.74,15.51h-1.05v-.62c0-.09-.05-.13-.15-.13h-.21c-.1,0-.15.04-.15.13v2.21c0,.09.05.13.15.13h.21c.1,0,.15-.04.15-.13v-.59h1.05v.67c0,.5-.29.74-.88.74h-.85c-.59,0-.88-.25-.88-.74v-2.36c0-.5.29-.74.88-.74h.85c.59,0,.88.25.88.74v.7Z" fill="#010101" opacity=".3"/><path d="M20.52,14.9v.62c0,.09-.05.13-.15.13h-.43v-.89h.43c.1,0,.15.04.15.13ZM20.38,16.34h-.43v.89h.43c.1,0,.15-.04.15-.13v-.63c0-.09-.05-.13-.15-.13ZM16.58,16.61h.6l-.29-1.39-.31,1.39ZM26,16c0,3.31-2.69,6-6,6s-6-2.69-6-6,2.69-6,6-6,6,2.69,6,6ZM18.52,17.93l-.99-3.85h-1.28l-.99,3.85h1.03l.13-.58h.92l.12.58h1.06ZM21.56,14.82c0-.5-.29-.74-.88-.74h-1.76v3.85h1.76c.59,0,.88-.25.88-.74v-.58c0-.17-.02-.3-.06-.4s-.12-.17-.23-.22c.19-.1.29-.33.29-.68v-.49ZM23.69,14.9v.62h1.05v-.7c0-.5-.29-.74-.88-.74h-.85c-.59,0-.88.25-.88.74v2.36c0,.5.29.74.88.74h.85c.59,0,.88-.25.88-.74v-.67h-1.05v.59c0,.09-.05.13-.15.13h-.21c-.1,0-.15-.04-.15-.13v-2.21c0-.09.05-.13.15-.13h.21c.1,0,.15.04.15.13Z" fill="#fefefe"/></svg>