<?xml version="1.0" encoding="UTF-8"?><svg id="a" xmlns="http://www.w3.org/2000/svg" width="40" height="32" viewBox="0 0 40 32"><path d="M20,7c-6.76,0-12.68,3.6-16,9,3.32,5.4,9.24,9,16,9s12.68-3.6,16-9c-3.32-5.4-9.24-9-16-9ZM20,24c-5.99,0-11.48-2.98-14.81-8,3.33-5.02,8.82-8,14.81-8s11.48,2.98,14.81,8c-3.33,5.02-8.82,8-14.81,8Z" fill="#fefefe" opacity=".65"/><path d="M20,8c-5.99,0-11.48,2.98-14.81,8,3.33,5.02,8.82,8,14.81,8s11.48-2.98,14.81-8c-3.33-5.02-8.82-8-14.81-8Z" fill="#010101" opacity=".3"/><path d="M25.67,16l-1.19-1.2.43-1.63-1.63-.45-.45-1.63-1.63.43-1.2-1.19-1.2,1.19-1.63-.43-.45,1.63-1.63.45.43,1.63-1.19,1.2,1.19,1.2-.43,1.63,1.63.45.45,1.63,1.63-.43,1.2,1.19,1.2-1.19,1.63.43.45-1.63,1.63-.45-.43-1.63,1.19-1.2ZM20.63,18.17h-1.26v-1.2h1.26v1.2ZM20.5,16.46h-1l-.22-3h1.44l-.22,3Z" fill="#fefefe"/></svg>